# xmcd CD database file
#
# Track frame offsets:
#	150
#	18352
#	40959
#	69413
#	97526
#	126201
#	178206
#	193867
#	216603
#	234847
#	254564
#	272457
#
# Disc length: 4206 seconds
#
# Revision: 1
# Processed by: cddbd v1.4PL0 Copyright (c) Steve Scherf et al.
# Submitted via: CDex 1.50beta10
#
DISCID=a8106c0c
DTITLE=Walt and The Blue Step - Untypical?
DYEAR=2003
DGENRE=Blues
TTITLE0=Walk down the Road
TTITLE1=Got my mojo working
TTITLE2=Ain't nobody's business
TTITLE3=Chairmen of the board
TTITLE4=Movin and Groovin'
TTITLE5=5 o' clock
TTITLE6=Freeze to me, Mama
TTITLE7=Got a rich man's woman
TTITLE8=She's a woman
TTITLE9=Real deal
TTITLE10=Rack them up
TTITLE11=Hootchie Coochie Man
EXTD=YEAR: 2003
EXTT0=
EXTT1=
EXTT2=
EXTT3=
EXTT4=
EXTT5=
EXTT6=
EXTT7=
EXTT8=
EXTT9=
EXTT10=
EXTT11=
PLAYORDER=
